<?xml version="1.0" encoding="utf-8"?>
<!-- Generator: Adobe Illustrator 27.0.0, SVG Export Plug-In . SVG Version: 6.00 Build 0)  -->
<svg version="1.1" id="Layer_1" xmlns="http://www.w3.org/2000/svg" xmlns:xlink="http://www.w3.org/1999/xlink" x="0px" y="0px"
	 viewBox="0 0 384 384" style="enable-background:new 0 0 384 384;" xml:space="preserve">
<style type="text/css">
	.st0{fill:#89B3B6;}
	.st1{fill:#CFF9FC;}
	.st2{fill:#7DA7AB;}
	.st3{fill:#87B1D2;}
	.st4{fill:#E2FDFF;}
	.st5{fill:#BEE8EB;}
	.st6{fill:#FEFFFF;}
	.st7{fill:#9CC6C9;}
	.st8{fill:#E1F8F9;}
</style>
<path class="st0" d="M199.7,376.3c-9.6,0-19.1,0-29.4-0.3c-1.7-0.7-2.7-1.3-3.7-1.5c-17.1-2.1-33.6-6.8-49.3-13.9
	c-6.9-3.1-13.2-7.4-19.6-11.4c4.3-13.4,3-25.8-4.6-37.3c-7.4-11.2-10.4-23.4-8.9-36.7c0.6-5.5,1.4-11,2.2-16.5
	c1.3-9.2-2.4-14.7-11.2-17c-9.4-2.4-14.3-8.1-13.9-17.7c0.3-9.5,1.7-19,2.2-28.5c0.7-12.1-2.3-23-11.5-31.8
	c-0.2-0.6-0.3-0.9-0.2-1.6c6.2-11.9,12.2-23.6,18.5-35.1c0.9,0.6,1.5,1.1,2,1.7c17.1,20.4,34.1,40.8,51.1,61.6
	c-4.5,8.8-3.4,17,1.3,24.8c2,3.4,4.6,6.5,7.4,9.2c2.6,2.5,3.4,5,2.7,8.4c-3.4,17.8-4.4,35.9-3.9,54c0.2,6.1,2.7,9.6,7.9,10.8
	c4.7,1.1,9.7-1.4,12.1-6.3c1.6-3.1,2.8-6.4,4.5-9.8c5.1-8.2,9.9-16.1,15.1-24.5c5.9,4.4,10.9,8.6,16.4,12c5.2,3.3,8.2,7,5.8,13.7
	c-0.6,3.9-1.4,7.5-1.3,11c0.1,3.6,1,7.2,1.7,11.1c5.6,4.3,10.1,3.3,12.9-2.6c1.2-2.4,2.3-4.9,3.2-7.4c1.2-3.6,2.5-5.9,7.3-5
	c2.7,0.5,5.9-1.7,9-2.4c1,1.2,1.8,2.3,2.7,3.1c14.1,11,28.1,22.2,42.5,32.9c8.2,6.2,16.9,11.7,25.3,17.8c-0.2,0.4-0.2,0.6-0.3,0.7
	c-24.1,17.6-51.1,28.1-80.7,32.3C210,375.1,204.8,375.7,199.7,376.3z"/>
<path class="st1" d="M78.4,336.3c-2.1-1.4-4.4-2.5-6.3-4.1c-20.5-18.4-36.9-39.7-47.6-65.3c-6.4-15.4-11.3-31.3-13-48
	c-0.1-0.9-0.7-1.7-1.4-2.7c-0.3-15.5-0.3-30.8,0-46.6c1.1-2.2,2-3.8,2.5-5.6c2-7,3.9-14,6.2-20.8c12.4,4.6,23.2,11,32.8,19.5
	c0.1,0.3,0.2,0.7,0.2,1.6C41,192,39,220.3,42.5,248.9c3.1,25.4,11.6,49.3,25.4,71.1C71.4,325.4,74.9,330.8,78.4,336.3z"/>
<path class="st2" d="M55.1,9.7c10.4,3.5,20.7,6.4,30.4,10.6c8.1,3.5,15.5,8.5,23.3,13.4c-4.3,2.6-8.7,4.7-13.3,6.5
	c-12.7-8.4-26-14.6-40.7-17.6C41.6,20,35.4,26.3,37.9,39.5c2.7,13.7,8.5,26.2,15.7,38.4c1.9,3.5,3.5,6.8,5.6,9.8
	c6.3,9.1,12.8,18.1,19.2,27.5c8.8,11.5,17.2,22.9,26.3,33.9c9.1,11.1,18.7,21.7,27.9,32.8c-2.3,2-4.4,3.7-6.7,5.7
	c-1,1-1.7,1.9-2.5,2.7c-17-20.4-34.1-40.8-51.2-61.3c-0.5-0.6-1.1-1.1-2.1-2.1c-8.7-12.9-16.9-25.4-25.3-38.2
	c-1.8-3.4-3.5-6.4-5.1-9.5c-6.5-12.6-12.5-25.3-14.5-39.6c-1.6-11.5,1.8-23.7,12.9-28c0.8-0.3,1.4-1.2,2-1.9
	C45.1,9.7,49.8,9.7,55.1,9.7z"/>
<path class="st3" d="M376.3,345.3c-0.2,0.4-0.3,0.4-0.8,0c-0.3-6.2-0.3-11.9-0.3-17.7c0.2,0,0.3,0,0.8,0
	C376.3,333.4,376.3,339.1,376.3,345.3z"/>
<path class="st4" d="M126.1,187.3c2.1-1.8,4.2-3.5,6.9-5.6c13.1-5,23,0.2,31.6,8.7c3.4,3.4,6.5,4.1,11,3.3
	c17.6-3.3,35.3-4.1,53.1-3.7c5.3,0.1,8.6,2.7,9.8,7.4c1.2,4.6-0.7,9.4-4.9,11.9c-1.8,1.1-3.7,1.8-5.5,2.8
	c-9.9,5.6-19.8,11.2-30.3,17.2c6.1,8.1,11.4,15.2,16.9,22.1c0.7,0.9,2.8,1,4.2,0.9c6.8-0.6,13.6-1.4,20.4-2c4.4-0.4,7.9,1,9.1,5.7
	c1.1,4.3-0.8,7.2-5.9,9.5c-4,1.8-8,3.5-11.7,5.1c0.2,2.9,0.3,5.1,0.3,7.7c-2,3.2-3.8,6.2-5.7,9.1c-3,1-6.2,3.2-8.9,2.7
	c-4.8-0.9-6.1,1.5-7.3,5c-0.9,2.5-2,5-3.2,7.4c-2.9,5.9-7.3,6.9-12.7,2.3c0.2-6.8,0.4-13,0.5-19.2c0-1-0.6-2-0.9-2.9
	c2.2-6.4-0.8-10.1-6-13.4c-5.5-3.4-10.4-7.6-16.4-12c-5.1,8.4-10,16.4-15.4,24.2c-0.7-1-1.2-1.9-1.1-2.8c0.7-9.5,1.4-18.9,2.4-28.4
	c0.9-8.7,3.8-17.6-3.6-25.2c-6.8-7-9.2-15.6-8.5-25.4c0.5-8.1-5.8-13.2-13.9-12.3C128.9,187.5,127.5,187.3,126.1,187.3z"/>
<path class="st5" d="M78.4,336.2c-3.5-5.4-7.1-10.8-10.5-16.3c-13.8-21.8-22.3-45.6-25.4-71.1C39,220.3,41,192,51.8,164.4
	c9.4,8.2,12.3,19.1,11.7,31.2c-0.5,9.5-1.9,19-2.2,28.5c-0.3,9.6,4.6,15.3,13.9,17.7c8.8,2.3,12.5,7.8,11.2,17
	c-0.8,5.5-1.6,11-2.2,16.5c-1.5,13.3,1.5,25.5,8.9,36.7c7.6,11.4,8.9,23.9,4.6,37.3c-6.1-3.5-12.1-7.4-18.3-11.8
	C78.9,336.7,78.7,336.4,78.4,336.2C78.4,336.2,78.4,336.2,78.4,336.2z"/>
<path class="st2" d="M225.5,287.6c1.7-3.2,3.5-6.1,5.8-9.3c4.2,2.6,8,5.4,11.8,8.3c17.2,12.8,34.2,25.7,51.5,38.3
	c4.2,3,9.1,5.1,13.9,7.8c9.5,4.6,18.6,9.5,28.2,13.2c5.2,2,11.1,2.4,16.7,2.7c6.2,0.4,9.1-2.3,10-8.4c0.4-2.6,0.2-5.4-0.3-8
	c-2.8-15.6-10.1-29.3-17.8-43.1c2-3.9,4-7.6,5.9-11.2c1.4,1.4,3.3,2.5,4.2,4.1c7.6,13,14.6,26.4,18.7,41.8c0.4,1.4,0.6,2.2,0.9,3
	c0,0,0,0.4,0.1,0.7c0,6,0,11.7,0,17.9c0,0.4-0.1,0.9-0.3,1.3c-0.4,0.9-0.5,1.5-0.7,2c0,0,0,0-0.2,0.2c-0.4,0.7-0.6,1.2-0.8,1.7
	c-7.6,11.7-19,11.9-30.8,9.8c-15.1-2.7-28.6-10-41.9-17.3c-1.2-0.7-2.5-1.3-4.1-1.9c-8.8-5.8-17.5-11.4-25.8-17.5
	c-14.3-10.7-28.4-21.9-42.5-32.9C227.3,290,226.5,288.9,225.5,287.6z"/>
<path class="st6" d="M125.9,187.4c1.6-0.1,3,0.1,4.4-0.1c8.1-0.9,14.4,4.3,13.9,12.3c-0.7,9.8,1.8,18.3,8.5,25.4
	c7.3,7.7,4.5,16.5,3.6,25.2c-1,9.4-1.6,18.9-2.4,28.4c-0.1,0.9,0.4,1.8,0.9,3c-1.1,3.5-2.4,6.7-4,9.9c-2.4,4.9-7.4,7.4-12.1,6.3
	c-5.3-1.2-7.8-4.7-7.9-10.8c-0.5-18.1,0.5-36.2,3.9-54c0.7-3.5-0.1-5.9-2.7-8.4c-2.8-2.7-5.4-5.9-7.4-9.2c-4.7-7.8-5.8-16-1.3-24.8
	C124.2,189.3,124.9,188.5,125.9,187.4z"/>
<path class="st7" d="M18.7,143.1c1.2-5.2,2.3-10.5,4.4-15.4c5.7-13.5,12.1-26.8,21.7-38.5c8.4,12.2,16.7,24.7,25.1,37.5
	c-5.9,12-11.9,23.6-18.1,35.5C41.9,154.1,31.1,147.7,18.7,143.1z"/>
<path class="st8" d="M192.6,283c0.5,0.7,1.1,1.6,1.1,2.6c-0.1,6.2-0.3,12.4-0.7,18.9c-0.7-3.3-1.6-6.9-1.7-10.5
	C191.2,290.4,192,286.9,192.6,283z"/>
<path class="st0" d="M308.4,332.4c-4.6-2.5-9.5-4.5-13.7-7.6c-17.3-12.6-34.4-25.5-51.5-38.3c-3.8-2.8-7.6-5.7-11.7-8.6
	c-0.5-2.3-0.6-4.5-0.8-7.4c3.7-1.6,7.7-3.3,11.7-5.1c5.2-2.3,7-5.2,5.9-9.5c-1.2-4.7-4.7-6.1-9.1-5.7c-6.8,0.6-13.6,1.5-20.4,2
	c-1.4,0.1-3.5,0-4.2-0.9c-5.5-6.9-10.8-14-16.9-22.1c10.5-6,20.4-11.6,30.3-17.2c1.8-1,3.8-1.7,5.5-2.8c4.2-2.5,6.1-7.3,4.9-11.9
	c-1.3-4.7-4.5-7.3-9.8-7.4c-17.8-0.5-35.6,0.3-53.1,3.7c-4.4,0.8-7.6,0.1-11-3.3c-8.5-8.5-18.4-13.7-31.3-8.9
	c-9.8-10.8-19.4-21.4-28.5-32.5c-9-11-17.5-22.3-26-34.1c8-8.9,15.9-17.3,23.8-25.7c1.2-1.3,2.4-2.7,4-4.1c1.4-0.3,2.4-0.5,3.7-0.5
	c4.5-0.1,8.7-0.1,12.7-0.7c19-2.8,37.9-6.3,56.9-8.7c11.6-1.5,23.5-2,35,1.6c14.8,4.6,22.8,11.6,23.2,26.4c0.1,2,0.5,4.1,0.9,6.1
	c1.2,5.9,4.9,9.5,11,9.1c5-0.3,10-1.5,14.8-2.9c9-2.7,17.6-6.4,26.7-8.8c12.9-3.3,20,2.6,19.8,15.9c-0.1,4.1-0.8,8.2-1.4,12.3
	c-1.7,13.7-4.4,27.3-5.1,41c-0.8,16.4,8.4,26.7,24.5,29.5c13.8,2.4,27.5,1.3,41.2-1c-0.2,15.9-3.4,31.3-8.7,46.4
	c-10.8-9.2-22.2-16.4-36.1-19.1c-17.3-3.3-30.4,9.4-26.9,26.6c2.4,12,3.4,23.7-0.7,35.6c-3.4,9.9,0.6,17.8,8.7,23.6
	c3.1,2.2,6.6,3.7,10,5.8C314.1,326.6,311.2,329.5,308.4,332.4z"/>
<path class="st5" d="M370.6,203.9c-13.7,2.7-27.5,3.8-41.2,1.5c-16.1-2.8-25.3-13.1-24.5-29.5c0.6-13.7,3.3-27.3,5.1-41
	c0.5-4.1,1.3-8.2,1.4-12.3c0.2-13.3-6.9-19.3-19.8-15.9c-9,2.3-17.7,6.1-26.7,8.8c-4.8,1.5-9.8,2.6-14.8,2.9
	c-6.1,0.4-9.8-3.2-11-9.1c-0.4-2-0.9-4.1-0.9-6.1c-0.4-14.8-8.3-21.8-23.2-26.4c-11.4-3.5-23.4-3.1-35-1.6
	c-19,2.4-37.9,5.9-56.9,8.7c-4.1,0.6-8.2,0.5-12.6,0.4c0.6-1.3,1.3-2.4,2.3-3.2c16.5-12.4,34.6-21.9,54.2-28.1
	c27.2-8.6,55-10.3,83.2-6.1c20.8,3.1,40.3,9.8,58.6,20.1c5.3,3,10.8,5.7,16.3,8.5c0.5,0.4,0.9,0.9,1.7,1.8c0.5,0.7,0.8,0.9,1,1.1
	c13.8,16,24.2,34,31.7,53.7c4.3,11.5,7.2,23.3,9.5,35.4C371.2,179.6,370.3,191.5,370.6,203.9z"/>
<path class="st1" d="M324.8,75.3c-5.2-2.6-10.7-5.2-16.1-8.2c-18.3-10.3-37.9-17-58.6-20.1c-28.2-4.2-56-2.6-83.2,6.1
	c-19.7,6.2-37.7,15.7-54.2,28.1c-1,0.7-1.7,1.9-2.6,3.1c-1.1,0.5-2.1,0.7-3.9,0.8c-2.3-0.3-3.9-0.7-5.5-0.8
	c-14.5-1.2-24.8-8-29.8-22.4c1.1-1.7,1.9-3.3,3.2-4.3c6-4.6,12.1-9,18.1-13.5c1.3-1,2.4-2.3,3.6-3.5c4.4-2.1,8.8-4.2,13.3-6.6
	c8.3-3.4,16.3-7,24.6-9.7c16.5-5.5,33.4-8.5,50.9-9c25-0.7,48.9,3.2,72.2,12.3c19.2,7.5,36.7,17.9,52.2,31.7
	C314.4,64.2,319.4,69.7,324.8,75.3z"/>
<path class="st5" d="M316.9,323.1c-3.3-1.8-6.9-3.3-10-5.5c-8.1-5.8-12.1-13.8-8.7-23.6c4.1-11.9,3.1-23.6,0.7-35.6
	c-3.5-17.1,9.7-29.9,26.9-26.6c13.9,2.7,25.3,9.9,35.9,19.4c-3.2,8.8-6.7,17.5-10.2,26.4c-2,3.9-4,7.6-6.3,11.6
	c-5.5,7.4-10.4,14.6-15.8,21.3C325.7,315,321.1,318.9,316.9,323.1z"/>
<path class="st3" d="M375.2,326.4c-0.3-0.4-0.6-1.2-0.9-2.3C374.7,324.5,375,325.3,375.2,326.4z"/>
<path class="st1" d="M327.5,78.2c-0.1,0-0.4-0.2-0.8-0.7C326.9,77.6,327.2,77.8,327.5,78.2z"/>
<path class="st1" d="M78.5,336.4c0.1,0,0.4,0.2,0.8,0.7C79.1,337.1,78.9,336.9,78.5,336.4z"/>
<path class="st7" d="M53.6,77.9c3.9-4.5,7.8-8.7,11.9-12.7c1.3-1.2,3-2,4.9-2.9c5.4,14,15.7,20.8,30.2,22c1.6,0.1,3.1,0.5,5.1,0.8
	c-0.8,1.4-2,2.8-3.2,4.2c-7.9,8.4-15.8,16.7-23.9,25.3c-6.6-8.8-13.1-17.8-19.4-26.9C57.2,84.7,55.5,81.4,53.6,77.9z"/>
<path class="st3" d="M374.6,348.4c-0.1-0.3,0.1-0.8,0.5-1.6C375.1,347.1,374.9,347.7,374.6,348.4z"/>
<path class="st3" d="M373.6,350.3c0-0.3,0.2-0.9,0.5-1.6C374.2,349.1,374,349.6,373.6,350.3z"/>
</svg>
